#N canvas 794 154 495 657 12;
#X obj 56 24 hip~ 5;
#X obj 64 75 int;
#X obj 64 49 env~ 8192;
#X obj 58 -15 adc~;
#X floatatom 21 75 5 0 0 0 - - -;
#X msg 87 440 start;
#X msg 110 225 0;
#X msg 146 225 1;
#X obj 87 251 spigot 1;
#X obj 64 379 t b b;
#X msg 96 406 stop;
#X obj 64 166 select 1;
#X obj 64 200 t b b b;
#X obj 26 575 print websocket sending;
#X obj 63 105 spigot 1;
#X obj 166 44 delay 500;
#X msg 116 78 0;
#X msg 151 77 1;
#X obj 64 138 > 80;
#X obj 87 549 websocket-server 9001;
#X obj 64 354 delay 2000;
#X obj 275 412 noise~;
#X obj 274 441 *~;
#X obj 274 482 dac~;
#X obj 294 376 line~;
#X msg 338 70 \; pd dsp 1;
#X obj 336 35 loadbang;
#X msg 341 116 1;
#X msg 376 116 0;
#X obj 297 284 random 100;
#X msg 295 220 bang;
#X msg 337 221 stop;
#X msg 301 342 \$1 10;
#X obj 296 253 metro 100;
#X obj 341 185 t b b;
#X obj 297 313 / 100;
#X connect 0 0 2 0;
#X connect 1 0 4 0;
#X connect 1 0 14 0;
#X connect 2 0 1 0;
#X connect 3 0 0 0;
#X connect 3 1 0 0;
#X connect 5 0 13 0;
#X connect 5 0 19 0;
#X connect 6 0 8 1;
#X connect 7 0 8 1;
#X connect 8 0 5 0;
#X connect 8 0 34 0;
#X connect 9 0 16 0;
#X connect 9 0 15 0;
#X connect 9 1 10 0;
#X connect 9 1 27 0;
#X connect 10 0 13 0;
#X connect 10 0 19 0;
#X connect 11 0 12 0;
#X connect 12 0 20 0;
#X connect 12 1 6 0;
#X connect 12 2 8 0;
#X connect 14 0 18 0;
#X connect 15 0 7 0;
#X connect 15 0 17 0;
#X connect 16 0 14 1;
#X connect 17 0 14 1;
#X connect 18 0 11 0;
#X connect 20 0 9 0;
#X connect 21 0 22 0;
#X connect 22 0 23 0;
#X connect 22 0 23 1;
#X connect 24 0 22 1;
#X connect 26 0 25 0;
#X connect 27 0 30 0;
#X connect 28 0 32 0;
#X connect 29 0 35 0;
#X connect 30 0 33 0;
#X connect 31 0 33 0;
#X connect 32 0 24 0;
#X connect 33 0 29 0;
#X connect 34 0 28 0;
#X connect 34 1 31 0;
#X connect 35 0 32 0;
