#N canvas 51 858 750 586 12;
#X obj 56 24 hip~ 5;
#X obj 64 75 int;
#X obj 64 49 env~ 8192;
#X obj 58 -15 adc~;
#X floatatom 21 75 5 0 0 0 - - -, f 5;
#X msg 87 440 start;
#X msg 110 225 0;
#X msg 146 225 1;
#X obj 87 251 spigot 1;
#X obj 64 379 t b b;
#X msg 96 406 stop;
#X obj 64 166 select 1;
#X obj 64 200 t b b b;
#X obj 26 575 print websocket sending;
#X obj 63 105 spigot 1;
#X obj 166 44 delay 500;
#X msg 116 78 0;
#X msg 151 77 1;
#X obj 87 549 websocket-server 9001;
#X obj 64 354 delay 2000;
#X obj 275 412 noise~;
#X obj 274 441 *~;
#X obj 274 482 dac~;
#X obj 294 376 line~;
#X msg 338 70 \; pd dsp 1;
#X obj 336 35 loadbang;
#X msg 341 116 1;
#X msg 376 116 0;
#X obj 297 284 random 100;
#X msg 295 220 bang;
#X msg 337 221 stop;
#X msg 301 342 \$1 10;
#X obj 296 253 metro 100;
#X obj 341 185 t b b;
#X obj 297 313 / 100;
#X floatatom 190 135 5 0 0 0 - - -, f 5;
#X obj 64 138 > 75;
#X obj 693 118 bng 15 250 50 0 empty empty empty 17 7 0 10 -262144
-1 -1;
#X obj 646 185 random 50;
#X obj 656 217 / 100;
#X obj 658 249 + 0.5;
#X obj 558 389 line;
#X obj 650 160 metro 100;
#X msg 558 362 \$1 100;
#X obj 597 322 spigot 0;
#X msg 528 284 0.35;
#X obj 429 97 bng 15 250 50 0 empty empty empty 17 7 0 10 -262144 -1
-1;
#X obj 495 97 bng 15 250 50 0 empty empty empty 17 7 0 10 -262144 -1
-1;
#X text 420 68 start;
#X text 494 66 stop;
#X msg 636 285 0;
#X obj 494 120 t b b;
#X msg 596 283 1;
#X obj 705 363 print;
#X obj 558 414 websocket-server 9004;
#X obj 632 90 loadbang;
#N canvas 0 828 1366 675 addTriad 0;
#X floatatom 277 541 5 0 100 0 - - -, f 5;
#N canvas 143 1291 958 610 reverb 0;
#X obj 13 19 inlet~;
#X obj 13 43 reverb-echo echo-del1 5.43216;
#X obj 277 215 +~;
#X obj 319 215 +~;
#X obj 67 276 outlet~;
#X obj 137 276 outlet~;
#X obj 238 334 +~;
#X obj 347 335 +~;
#X obj 280 334 -~;
#X obj 387 334 -~;
#X obj 237 390 +~;
#X obj 281 391 +~;
#X obj 325 392 -~;
#X obj 364 392 -~;
#X obj 324 474 *~ 0;
#X obj 282 473 *~ 0;
#X obj 237 472 *~ 0;
#X obj 365 475 *~ 0;
#X obj 632 365 inlet;
#X obj 632 437 / 200;
#X obj 632 389 min 100;
#X obj 632 412 max 0;
#X obj 238 583 delwrite~ loop-del1 60;
#X obj 283 561 delwrite~ loop-del2 71.9345;
#X obj 364 515 delwrite~ loop-del4 95.945;
#X obj 298 154 delread~ loop-del1 60;
#X obj 340 179 delread~ loop-del2 71.9345;
#X obj 408 233 delread~ loop-del4 95.945;
#X obj 386 208 delread~ loop-del3 86.7545;
#X obj 325 538 delwrite~ loop-del3 86.7545;
#X obj 13 67 reverb-echo echo-del2 8.45346;
#X obj 13 91 reverb-echo echo-del3 13.4367;
#X obj 13 115 reverb-echo echo-del4 21.5463;
#X obj 13 139 reverb-echo echo-del5 34.3876;
#X obj 13 163 reverb-echo echo-del6 55.5437;
#X text 286 42 "early echo" generators \, which also increase echo
density. Open one to see what they do.;
#X text 300 115 Get the outputs of the recirculating delays. Add the
inputs to two of them.;
#X text 420 313 Do a power-conserving mix of them in pairs. First combine
(1 \, 2) and (3 \, 4)...;
#X text 402 385 ...then (1 \, 3) and (2 \, 4);
#X text 446 469 The two mixing stages have a combined gain of 2 \,
so the recirculation gain is limited to 0.5.;
#X text 586 542 Put the signals back into the;
#X text 584 557 recirculating delays.;
#X text 29 296 Tap outputs from here.;
#X text 708 381 0 to 100 to control reverb;
#X text 719 396 time.;
#X text 691 364 feedback gain on a scale of;
#X connect 0 0 1 0;
#X connect 1 0 30 0;
#X connect 1 1 30 1;
#X connect 2 0 4 0;
#X connect 2 0 6 0;
#X connect 2 0 8 0;
#X connect 3 0 5 0;
#X connect 3 0 6 1;
#X connect 3 0 8 1;
#X connect 6 0 10 0;
#X connect 6 0 12 0;
#X connect 7 0 12 1;
#X connect 7 0 10 1;
#X connect 8 0 11 0;
#X connect 8 0 13 0;
#X connect 9 0 11 1;
#X connect 9 0 13 1;
#X connect 10 0 16 0;
#X connect 11 0 15 0;
#X connect 12 0 14 0;
#X connect 13 0 17 0;
#X connect 14 0 29 0;
#X connect 15 0 23 0;
#X connect 16 0 22 0;
#X connect 17 0 24 0;
#X connect 18 0 20 0;
#X connect 19 0 17 1;
#X connect 19 0 16 1;
#X connect 19 0 15 1;
#X connect 19 0 14 1;
#X connect 20 0 21 0;
#X connect 21 0 19 0;
#X connect 25 0 2 1;
#X connect 26 0 3 1;
#X connect 27 0 7 1;
#X connect 27 0 9 1;
#X connect 28 0 7 0;
#X connect 28 0 9 0;
#X connect 30 0 31 0;
#X connect 30 1 31 1;
#X connect 31 0 32 0;
#X connect 31 1 32 1;
#X connect 32 0 33 0;
#X connect 32 1 33 1;
#X connect 33 0 34 0;
#X connect 33 1 34 1;
#X connect 34 0 2 0;
#X connect 34 1 3 0;
#X restore 209 567 pd reverb;
#N canvas 477 273 1052 640 pitchshift 0;
#X floatatom 19 87 0 0 0 0 - - -;
#X obj 82 358 *~;
#X obj 205 295 line~;
#X floatatom 237 112 0 0 0 0 - - -;
#X text 68 9 PITCH SHIFTER;
#X obj 205 269 pack 0 200;
#X obj 237 86 r window;
#X obj 19 143 exp;
#X floatatom 19 169 6 0 0 0 - - -, f 6;
#X obj 19 259 /;
#X obj 146 189 * 0.001;
#X obj 314 365 line~;
#X obj 314 340 pack 0 200;
#X floatatom 314 289 0 0 0 0 - - -;
#X obj 314 263 r delay;
#X obj 82 384 +~;
#X obj 19 410 cos~;
#X obj 19 437 *~;
#X obj 19 466 +~;
#X obj 106 317 wrap~;
#X obj 251 360 *~;
#X obj 251 393 +~;
#X obj 188 420 cos~;
#X obj 188 447 *~;
#X msg 492 56 \; transpose 0 \; window 100 \; delay 0;
#X obj 492 30 loadbang;
#X obj 146 216 t b f;
#X floatatom 19 285 6 0 0 0 - - -, f 6;
#X obj 106 290 +~ 0.5;
#X obj 19 358 -~ 0.5;
#X obj 19 384 *~ 0.5;
#X obj 188 359 -~ 0.5;
#X obj 188 392 *~ 0.5;
#X obj 19 196 - 1;
#X obj 19 117 * 0.05776;
#X obj 19 222 * -1;
#X text 53 86 <-- transposition;
#X text 96 99 (halftones);
#X text 82 163 speed;
#X text 81 177 change;
#X text 281 111 <--window (msec);
#X text 54 252 tape head;
#X text 425 153 This is a classic rotating-tape-head style pitch shifter
using the vd~ variable delay object. There are two moving tape heads
\, each of which is loudest at the middle of its trajectory \, and
enveloped out at the moment it has to jump back (or forward) to start
another scratch. Most of the brain work is in computing how fast the
tape heads have to move to get the desired transposition.;
#X text 425 272 The "window size" is the total trajectory of the read
points in the delay line \, in milliseconds. The delay times are controlled
by a phasor~ object. The second delay time \, 180 degrees out of phase
from the first one \, is computed using the "wrap" object.;
#X text 423 362 The "window size" is the total trajectory of the read
points in the delay line \, in milliseconds. The delay times are controlled
by a phasor~ object. The second delay time \, 180 degrees out of phase
from the first one \, is computed using the "wrap" object.;
#X text 422 454 The cos~ objects compute the fadein and fadeout of
the two delay line outputs. They each traverse the positive half of
the cosine waveform (phase -0.25 to +0.25) over the time the phase
goes from one end to the other.;
#X obj 19 316 phasor~;
#X text 689 534 updated for Pd version 0.37-1;
#X obj 314 316 max 1.5;
#X text 317 222 delay;
#X text 314 240 (msec);
#X obj 237 139 max 1;
#X text 55 265 rotation freq;
#X obj 82 410 vd~ G09-del;
#X obj 251 422 vd~ G09-del;
#X obj 264 42 delwrite~ G09-del 5000;
#X obj 264 11 inlet~;
#X obj 19 493 outlet~;
#X obj 379 78 inlet;
#X connect 0 0 34 0;
#X connect 1 0 15 0;
#X connect 2 0 1 1;
#X connect 2 0 20 1;
#X connect 3 0 51 0;
#X connect 5 0 2 0;
#X connect 6 0 3 0;
#X connect 7 0 8 0;
#X connect 8 0 33 0;
#X connect 9 0 27 0;
#X connect 10 0 26 0;
#X connect 11 0 15 1;
#X connect 11 0 21 1;
#X connect 12 0 11 0;
#X connect 13 0 48 0;
#X connect 14 0 13 0;
#X connect 15 0 53 0;
#X connect 16 0 17 0;
#X connect 17 0 18 0;
#X connect 18 0 57 0;
#X connect 19 0 20 0;
#X connect 19 0 31 0;
#X connect 20 0 21 0;
#X connect 21 0 54 0;
#X connect 22 0 23 0;
#X connect 23 0 18 1;
#X connect 25 0 24 0;
#X connect 26 0 9 0;
#X connect 26 1 9 1;
#X connect 27 0 46 0;
#X connect 28 0 19 0;
#X connect 29 0 30 0;
#X connect 30 0 16 0;
#X connect 31 0 32 0;
#X connect 32 0 22 0;
#X connect 33 0 35 0;
#X connect 34 0 7 0;
#X connect 35 0 9 0;
#X connect 46 0 1 0;
#X connect 46 0 29 0;
#X connect 46 0 28 0;
#X connect 48 0 12 0;
#X connect 51 0 10 0;
#X connect 51 0 5 0;
#X connect 53 0 17 1;
#X connect 54 0 23 1;
#X connect 56 0 55 0;
#X connect 58 0 0 0;
#X restore 377 344 pd pitchshift;
#X obj 212 601 *~;
#X obj 259 601 *~;
#X obj 233 636 +~;
#X obj 386 425 vsl 15 128 0 4 0 0 empty empty empty 0 -9 0 10 -262144
-1 -1 10160 1;
#X obj 337 624 line~;
#X msg 342 582 \$1 50;
#N canvas 294 63 902 654 p2 0;
#X floatatom 19 87 0 0 0 0 - - -;
#X obj 82 358 *~;
#X obj 205 295 line~;
#X floatatom 237 112 0 0 0 0 - - -;
#X text 68 9 PITCH SHIFTER;
#X obj 205 269 pack 0 200;
#X obj 237 86 r window;
#X obj 19 143 exp;
#X floatatom 19 169 6 0 0 0 - - -, f 6;
#X obj 19 259 /;
#X obj 146 189 * 0.001;
#X obj 314 365 line~;
#X obj 314 340 pack 0 200;
#X floatatom 314 289 0 0 0 0 - - -;
#X obj 314 263 r delay;
#X obj 82 384 +~;
#X obj 19 410 cos~;
#X obj 19 437 *~;
#X obj 19 466 +~;
#X obj 106 317 wrap~;
#X obj 251 360 *~;
#X obj 251 393 +~;
#X obj 188 420 cos~;
#X obj 188 447 *~;
#X msg 492 56 \; transpose 0 \; window 100 \; delay 0;
#X obj 492 30 loadbang;
#X obj 146 216 t b f;
#X floatatom 19 285 6 0 0 0 - - -, f 6;
#X obj 106 290 +~ 0.5;
#X obj 19 358 -~ 0.5;
#X obj 19 384 *~ 0.5;
#X obj 188 359 -~ 0.5;
#X obj 188 392 *~ 0.5;
#X obj 19 196 - 1;
#X obj 19 117 * 0.05776;
#X obj 19 222 * -1;
#X text 53 86 <-- transposition;
#X text 96 99 (halftones);
#X text 82 163 speed;
#X text 81 177 change;
#X text 281 111 <--window (msec);
#X text 54 252 tape head;
#X text 425 153 This is a classic rotating-tape-head style pitch shifter
using the vd~ variable delay object. There are two moving tape heads
\, each of which is loudest at the middle of its trajectory \, and
enveloped out at the moment it has to jump back (or forward) to start
another scratch. Most of the brain work is in computing how fast the
tape heads have to move to get the desired transposition.;
#X text 425 272 The "window size" is the total trajectory of the read
points in the delay line \, in milliseconds. The delay times are controlled
by a phasor~ object. The second delay time \, 180 degrees out of phase
from the first one \, is computed using the "wrap" object.;
#X text 423 362 The "window size" is the total trajectory of the read
points in the delay line \, in milliseconds. The delay times are controlled
by a phasor~ object. The second delay time \, 180 degrees out of phase
from the first one \, is computed using the "wrap" object.;
#X text 422 454 The cos~ objects compute the fadein and fadeout of
the two delay line outputs. They each traverse the positive half of
the cosine waveform (phase -0.25 to +0.25) over the time the phase
goes from one end to the other.;
#X obj 19 316 phasor~;
#X text 689 534 updated for Pd version 0.37-1;
#X obj 314 316 max 1.5;
#X text 317 222 delay;
#X text 314 240 (msec);
#X obj 237 139 max 1;
#X text 55 265 rotation freq;
#X obj 264 11 inlet~;
#X obj 19 493 outlet~;
#X obj 379 78 inlet;
#X obj 263 42 delwrite~ G09a-del 5000;
#X obj 82 410 vd~ G09a-del;
#X obj 251 422 vd~ G09a-del;
#X connect 0 0 34 0;
#X connect 1 0 15 0;
#X connect 2 0 1 1;
#X connect 2 0 20 1;
#X connect 3 0 51 0;
#X connect 5 0 2 0;
#X connect 6 0 3 0;
#X connect 7 0 8 0;
#X connect 8 0 33 0;
#X connect 9 0 27 0;
#X connect 10 0 26 0;
#X connect 11 0 15 1;
#X connect 11 0 21 1;
#X connect 12 0 11 0;
#X connect 13 0 48 0;
#X connect 14 0 13 0;
#X connect 15 0 57 0;
#X connect 16 0 17 0;
#X connect 17 0 18 0;
#X connect 18 0 54 0;
#X connect 19 0 20 0;
#X connect 19 0 31 0;
#X connect 20 0 21 0;
#X connect 21 0 58 0;
#X connect 22 0 23 0;
#X connect 23 0 18 1;
#X connect 25 0 24 0;
#X connect 26 0 9 0;
#X connect 26 1 9 1;
#X connect 27 0 46 0;
#X connect 28 0 19 0;
#X connect 29 0 30 0;
#X connect 30 0 16 0;
#X connect 31 0 32 0;
#X connect 32 0 22 0;
#X connect 33 0 35 0;
#X connect 34 0 7 0;
#X connect 35 0 9 0;
#X connect 46 0 1 0;
#X connect 46 0 29 0;
#X connect 46 0 28 0;
#X connect 48 0 12 0;
#X connect 51 0 10 0;
#X connect 51 0 5 0;
#X connect 53 0 56 0;
#X connect 55 0 0 0;
#X connect 57 0 17 1;
#X connect 58 0 23 1;
#X restore 223 360 pd p2;
#X floatatom 255 333 5 0 0 0 - - -, f 5;
#X obj 298 429 +~;
#N canvas 614 288 774 636 p3 0;
#X floatatom 19 87 0 0 0 0 - - -;
#X obj 82 358 *~;
#X obj 205 295 line~;
#X floatatom 237 112 0 0 0 0 - - -;
#X text 68 9 PITCH SHIFTER;
#X obj 205 269 pack 0 200;
#X obj 237 86 r window;
#X obj 19 143 exp;
#X floatatom 19 169 6 0 0 0 - - -, f 6;
#X obj 19 259 /;
#X obj 146 189 * 0.001;
#X obj 314 365 line~;
#X obj 314 340 pack 0 200;
#X floatatom 314 289 0 0 0 0 - - -;
#X obj 314 263 r delay;
#X obj 82 384 +~;
#X obj 19 410 cos~;
#X obj 19 437 *~;
#X obj 19 466 +~;
#X obj 106 317 wrap~;
#X obj 251 360 *~;
#X obj 251 393 +~;
#X obj 188 420 cos~;
#X obj 188 447 *~;
#X msg 492 56 \; transpose 0 \; window 100 \; delay 0;
#X obj 492 30 loadbang;
#X obj 146 216 t b f;
#X floatatom 19 285 6 0 0 0 - - -, f 6;
#X obj 106 290 +~ 0.5;
#X obj 19 358 -~ 0.5;
#X obj 19 384 *~ 0.5;
#X obj 188 359 -~ 0.5;
#X obj 188 392 *~ 0.5;
#X obj 19 196 - 1;
#X obj 19 117 * 0.05776;
#X obj 19 222 * -1;
#X text 53 86 <-- transposition;
#X text 96 99 (halftones);
#X text 82 163 speed;
#X text 81 177 change;
#X text 281 111 <--window (msec);
#X text 54 252 tape head;
#X text 425 153 This is a classic rotating-tape-head style pitch shifter
using the vd~ variable delay object. There are two moving tape heads
\, each of which is loudest at the middle of its trajectory \, and
enveloped out at the moment it has to jump back (or forward) to start
another scratch. Most of the brain work is in computing how fast the
tape heads have to move to get the desired transposition.;
#X text 425 272 The "window size" is the total trajectory of the read
points in the delay line \, in milliseconds. The delay times are controlled
by a phasor~ object. The second delay time \, 180 degrees out of phase
from the first one \, is computed using the "wrap" object.;
#X text 423 362 The "window size" is the total trajectory of the read
points in the delay line \, in milliseconds. The delay times are controlled
by a phasor~ object. The second delay time \, 180 degrees out of phase
from the first one \, is computed using the "wrap" object.;
#X text 422 454 The cos~ objects compute the fadein and fadeout of
the two delay line outputs. They each traverse the positive half of
the cosine waveform (phase -0.25 to +0.25) over the time the phase
goes from one end to the other.;
#X obj 19 316 phasor~;
#X text 689 534 updated for Pd version 0.37-1;
#X obj 314 316 max 1.5;
#X text 317 222 delay;
#X text 314 240 (msec);
#X obj 237 139 max 1;
#X text 55 265 rotation freq;
#X obj 264 11 inlet~;
#X obj 19 493 outlet~;
#X obj 379 78 inlet;
#X obj 263 42 delwrite~ G09b-del 5000;
#X obj 82 410 vd~ G09b-del;
#X obj 251 422 vd~ G09b-del;
#X connect 0 0 34 0;
#X connect 1 0 15 0;
#X connect 2 0 1 1;
#X connect 2 0 20 1;
#X connect 3 0 51 0;
#X connect 5 0 2 0;
#X connect 6 0 3 0;
#X connect 7 0 8 0;
#X connect 8 0 33 0;
#X connect 9 0 27 0;
#X connect 10 0 26 0;
#X connect 11 0 15 1;
#X connect 11 0 21 1;
#X connect 12 0 11 0;
#X connect 13 0 48 0;
#X connect 14 0 13 0;
#X connect 15 0 57 0;
#X connect 16 0 17 0;
#X connect 17 0 18 0;
#X connect 18 0 54 0;
#X connect 19 0 20 0;
#X connect 19 0 31 0;
#X connect 20 0 21 0;
#X connect 21 0 58 0;
#X connect 22 0 23 0;
#X connect 23 0 18 1;
#X connect 25 0 24 0;
#X connect 26 0 9 0;
#X connect 26 1 9 1;
#X connect 27 0 46 0;
#X connect 28 0 19 0;
#X connect 29 0 30 0;
#X connect 30 0 16 0;
#X connect 31 0 32 0;
#X connect 32 0 22 0;
#X connect 33 0 35 0;
#X connect 34 0 7 0;
#X connect 35 0 9 0;
#X connect 46 0 1 0;
#X connect 46 0 29 0;
#X connect 46 0 28 0;
#X connect 48 0 12 0;
#X connect 51 0 10 0;
#X connect 51 0 5 0;
#X connect 53 0 56 0;
#X connect 55 0 0 0;
#X connect 57 0 17 1;
#X connect 58 0 23 1;
#X restore 141 359 pd p3;
#X obj 210 534 +~;
#X floatatom 133 333 5 0 0 0 - - -, f 5;
#X obj 141 386 *~;
#X obj 224 387 *~;
#X obj 377 378 *~;
#X obj 425 67 vsl 15 128 0 0.1 0 0 empty empty empty 0 -9 0 10 -262144
-1 -1 7620 1;
#X obj 419 250 line~;
#X msg 424 208 \$1 50;
#X msg 173 333 7;
#X obj 173 309 loadbang;
#N canvas 779 970 450 300 testAudio 0;
#X obj 107 88 readsf~;
#X msg 140 31 open /tmp/sample-0.wav;
#X msg 107 57 1;
#X msg 149 57 0;
#X obj 109 4 t b b;
#X obj 107 -65 bng 15 250 50 0 empty empty empty 17 7 0 10 -262144
-1 -1;
#X obj 106 -24 metro 10000;
#X obj 113 130 outlet~;
#X msg 137 -64 stop;
#X connect 0 0 7 0;
#X connect 0 1 7 0;
#X connect 1 0 0 0;
#X connect 2 0 0 0;
#X connect 3 0 0 0;
#X connect 4 0 2 0;
#X connect 4 1 1 0;
#X connect 5 0 6 0;
#X connect 6 0 4 0;
#X connect 8 0 6 0;
#X restore 142 91 pd testAudio;
#X obj 294 310 loadbang;
#X msg 294 334 4;
#X obj 452 295 loadbang;
#X msg 454 319 0;
#X floatatom 429 579 5 0 0 0 - - -, f 5;
#X floatatom 534 216 5 0 0 0 - - -, f 5;
#X obj 462 13 loadbang;
#X obj 456 430 loadbang;
#X msg 458 469 3.2;
#X msg 464 51 0.06;
#X obj 297 479 loadbang;
#X msg 261 513 70;
#X obj 139 134 hip~ 5;
#X obj 128 166 env~ 8192;
#X obj 9 357 / 100;
#X obj 10 302 clip 50 90;
#X obj 278 150 inlet~;
#X obj 225 675 outlet~;
#X connect 0 0 1 1;
#X connect 1 0 3 0;
#X connect 1 1 4 0;
#X connect 2 0 17 0;
#X connect 3 0 5 0;
#X connect 4 0 5 1;
#X connect 5 0 41 0;
#X connect 6 0 8 0;
#X connect 6 0 28 0;
#X connect 7 0 4 1;
#X connect 7 0 3 1;
#X connect 8 0 7 0;
#X connect 9 0 16 0;
#X connect 10 0 9 1;
#X connect 11 0 13 1;
#X connect 12 0 15 0;
#X connect 13 0 1 0;
#X connect 14 0 12 1;
#X connect 15 0 13 0;
#X connect 16 0 11 0;
#X connect 17 0 11 1;
#X connect 18 0 20 0;
#X connect 18 0 29 0;
#X connect 19 0 17 1;
#X connect 19 0 16 1;
#X connect 19 0 15 1;
#X connect 20 0 19 0;
#X connect 21 0 12 1;
#X connect 22 0 21 0;
#X connect 24 0 25 0;
#X connect 25 0 9 1;
#X connect 26 0 27 0;
#X connect 27 0 2 1;
#X connect 30 0 33 0;
#X connect 31 0 32 0;
#X connect 32 0 6 0;
#X connect 33 0 18 0;
#X connect 34 0 35 0;
#X connect 35 0 1 1;
#X connect 36 0 37 0;
#X connect 37 0 39 0;
#X connect 39 0 38 0;
#X connect 40 0 12 0;
#X connect 40 0 9 0;
#X connect 40 0 2 0;
#X restore 220 111 pd addTriad;
#X obj 220 79 +~;
#X connect 0 0 2 0;
#X connect 1 0 4 0;
#X connect 1 0 14 0;
#X connect 2 0 1 0;
#X connect 3 0 0 0;
#X connect 3 0 57 0;
#X connect 3 1 0 0;
#X connect 3 1 57 1;
#X connect 5 0 13 0;
#X connect 5 0 18 0;
#X connect 5 0 52 0;
#X connect 6 0 8 1;
#X connect 7 0 8 1;
#X connect 8 0 5 0;
#X connect 8 0 33 0;
#X connect 9 0 16 0;
#X connect 9 0 15 0;
#X connect 9 1 10 0;
#X connect 9 1 26 0;
#X connect 10 0 13 0;
#X connect 10 0 18 0;
#X connect 10 0 51 0;
#X connect 11 0 12 0;
#X connect 12 0 19 0;
#X connect 12 1 6 0;
#X connect 12 2 8 0;
#X connect 14 0 36 0;
#X connect 15 0 7 0;
#X connect 15 0 17 0;
#X connect 16 0 14 1;
#X connect 17 0 14 1;
#X connect 19 0 9 0;
#X connect 20 0 21 0;
#X connect 21 0 22 0;
#X connect 23 0 21 1;
#X connect 25 0 24 0;
#X connect 26 0 29 0;
#X connect 27 0 31 0;
#X connect 28 0 34 0;
#X connect 29 0 32 0;
#X connect 30 0 32 0;
#X connect 31 0 23 0;
#X connect 32 0 28 0;
#X connect 33 0 27 0;
#X connect 33 1 30 0;
#X connect 34 0 31 0;
#X connect 35 0 36 1;
#X connect 36 0 11 0;
#X connect 37 0 42 0;
#X connect 38 0 39 0;
#X connect 39 0 40 0;
#X connect 40 0 44 0;
#X connect 41 0 53 0;
#X connect 41 0 54 0;
#X connect 42 0 38 0;
#X connect 43 0 41 0;
#X connect 44 0 43 0;
#X connect 45 0 43 0;
#X connect 46 0 52 0;
#X connect 47 0 51 0;
#X connect 50 0 44 1;
#X connect 51 0 45 0;
#X connect 51 1 50 0;
#X connect 52 0 44 1;
#X connect 55 0 42 0;
#X connect 56 0 22 1;
#X connect 57 0 56 0;
